# xmcd
#
# Track frame offsets:
#	183
#	23858
#	52208
#	80683
#	111743
#	130625
#	154608
#	177350
#	214615
#	251223
#
# Disc length: 3712 seconds
#
# Revision: 2
# Processed by: cddbd v1.5.1PL0 Copyright (c) Steve Scherf et al.
# Submitted via: EasyCDDAExtractor 5.1.0
#
DISCID=8f0e7e0a
DTITLE=Deborah Henson-Conant - Just For You
DYEAR=1995
DGENRE=Blues
TTITLE0=Just For You
TTITLE1=Budapest
TTITLE2=The Rain King
TTITLE3=Baroque Flamenco
TTITLE4=Dance With Me
TTITLE5=Danger Zone
TTITLE6=Closer to You
TTITLE7=Under the Bed
TTITLE8=The Phoenix
TTITLE9=Watermelon Boogie
EXTD=
EXTT0=
EXTT1=
EXTT2=
EXTT3=
EXTT4=
EXTT5=
EXTT6=
EXTT7=
EXTT8=
EXTT9=
PLAYORDER=
